PathFileType	4	(X/Y/Z)	./resultDataOpenSim/trcMotMarkerGrf/sub09/qtm-12-01.trc
DataRate	CameraRate	NumFrames	NumMarkers	Units	OrigDataRate	OrigDataStartFrame	OrigNumFrames
250.000000	250.000000	11	24	m	250.000000	449	513
Frame#	Time	L.Toe.Tip			R.Toe.Tip			L.Ankle.Lat			R.Ankle.Lat			L.Ankle.Med			R.Ankle.Med			L.Heel			R.Heel			L.Knee.Lat			R.Knee.Lat			L.Knee.Med			R.Knee.Med			L.Thigh.Upper			R.Thigh.Upper			L.ASIS			R.ASIS			V.Sacral			L.Acromium			R.Acromium			C7			L.Elbow			R.Elbow			L.Wrist.Lat			R.Wrist.Lat
		X1	Y1	Z1	X2	Y2	Z2	X3	Y3	Z3	X4	Y4	Z4	X5	Y5	Z5	X6	Y6	Z6	X7	Y7	Z7	X8	Y8	Z8	X9	Y9	Z9	X10	Y10	Z10	X11	Y11	Z11	X12	Y12	Z12	X13	Y13	Z13	X14	Y14	Z14	X15	Y15	Z15	X16	Y16	Z16	X17	Y17	Z17	X18	Y18	Z18	X19	Y19	Z19	X20	Y20	Z20	X21	Y21	Z21	X22	Y22	Z22	X23	Y23	Z23	X24	Y24	Z24

449	1.792	1.8036943	0.086915782	-0.023545494	1.0338418	0.040801486	0.097793247	1.6482183	0.075449417	-0.050032424	0.90222143	0.1025536	0.13101351	1.6765514	0.099815596	0.042930884	0.93574406	0.13509255	0.041567891	1.5972128	0.0216081	0.0082110589	0.83284231	0.10711073	0.077168222	1.5349462	0.47818498	-0.091712916	1.1870714	0.46912738	0.19652421	1.5459951	0.47788706	0.032694033	1.1758882	0.46098752	0.069420913	1.3327806	0.84248565	-0.13290527	1.2556075	0.8642264	0.23410034	1.4002378	0.93502499	-0.066500377	1.377855	0.94468526	0.17838439	1.2207416	0.9852038	0.03310234	1.3452746	1.3888814	-0.13285205	1.3296587	1.4095752	0.19916307	1.26689	1.4448787	0.030243131	1.1833524	1.0630654	-0.19049562	1.176001	1.0825385	0.29799761	1.2861645	0.8204918	-0.22100967	1.3175503	0.84452693	0.3118234
450	1.796	1.8070963	0.0820828	-0.022967396	1.034251	0.041076319	0.097808031	1.6511118	0.074799927	-0.049682995	0.90388643	0.10507451	0.13174072	1.6799502	0.098708745	0.043225638	0.9380325	0.13716188	0.04232688	1.598424	0.022840939	0.0086185209	0.83477967	0.11085976	0.077838644	1.5407365	0.47747047	-0.09237502	1.1925252	0.46866709	0.1967114	1.5511643	0.47679453	0.032476778	1.1825329	0.459937	0.070056908	1.3401473	0.84247638	-0.13348207	1.2622285	0.86348389	0.23323591	1.4068392	0.93501201	-0.066781645	1.3846729	0.94397834	0.17800982	1.2272989	0.98494596	0.032617575	1.3509957	1.3885959	-0.13346878	1.335175	1.4092156	0.19853261	1.2723361	1.4445237	0.02956871	1.1893442	1.0625864	-0.19137355	1.1814736	1.0822987	0.29724059	1.2922758	0.82008061	-0.22178952	1.3229172	0.8439526	0.31139455
451	1.8	1.8101794	0.077886118	-0.022548902	1.0347028	0.041349353	0.097869442	1.6539246	0.074352353	-0.049598655	0.9057737	0.10771841	0.13254224	1.6830852	0.097694202	0.043329576	0.94043292	0.13928041	0.043141921	1.5997014	0.024019557	0.0087140192	0.83687506	0.11473964	0.078613448	1.5468525	0.47719854	-0.093121559	1.1982276	0.46822221	0.19692351	1.5562391	0.47591765	0.032259724	1.1894862	0.45876616	0.070756891	1.3475323	0.84255166	-0.13408413	1.2690558	0.86270519	0.23241381	1.4133463	0.93504597	-0.067082356	1.3914728	0.94328081	0.17761189	1.2337847	0.98480866	0.032161848	1.3567358	1.3883333	-0.13409887	1.3406446	1.4089338	0.19792639	1.277813	1.4442424	0.028893297	1.1952585	1.0620663	-0.19258238	1.1869408	1.0820881	0.29642765	1.2984322	0.81968778	-0.22258771	1.3283702	0.84338808	0.31097691
452	1.804	1.8127666	0.074196335	-0.022235305	1.0351835	0.041606876	0.097998113	1.6565382	0.073992593	-0.049754191	0.90784479	0.11045013	0.13342822	1.6857122	0.096758123	0.043262592	0.94296053	0.141464	0.044017419	1.6009364	0.024948694	0.0085016711	0.83915671	0.11875446	0.079483547	1.5532447	0.47747291	-0.093850364	1.2043503	0.46780338	0.19719744	1.5613641	0.47548465	0.031982113	1.1963068	0.45772837	0.071242218	1.3548798	0.84274572	-0.13471395	1.275912	0.86191367	0.23161707	1.4197674	0.93514227	-0.067411917	1.3982482	0.9426124	0.17718397	1.2401747	0.98477508	0.031719819	1.3624844	1.3881102	-0.13473093	1.3460689	1.4087257	0.19734766	1.2833447	1.4440503	0.028219994	1.2011573	1.0615408	-0.19397201	1.1923675	1.0819328	0.29555089	1.3046309	0.81931899	-0.22340026	1.3336943	0.84284717	0.31056819
453	1.808	1.8148448	0.07073114	-0.021944178	1.0356851	0.041846308	0.09820821	1.6589235	0.073689511	-0.05006025	0.91004601	0.1132436	0.13438047	1.6878828	0.095938524	0.043058006	0.94564268	0.1437293	0.044946241	1.6020392	0.025655067	0.0081096245	0.84165358	0.12290542	0.080404397	1.5597092	0.4782443	-0.094454041	1.2109269	0.46741494	0.19752119	1.5666583	0.47562805	0.03159979	1.2028111	0.45697742	0.071408607	1.3621293	0.84309845	-0.13536127	1.282915	0.86110985	0.2308857	1.4260966	0.93532254	-0.067769722	1.404991	0.94200442	0.17671621	1.2464867	0.98482777	0.031298153	1.3682386	1.3879449	-0.1353564	1.3514585	1.4085835	0.19679089	1.288949	1.4439564	0.027537123	1.2071715	1.0610861	-0.19522779	1.1977517	1.0818402	0.29462459	1.310866	0.81899139	-0.22421597	1.3386122	0.84235186	0.31016309
454	1.812	1.8165251	0.067256553	-0.021610468	1.0362275	0.042084291	0.098489354	1.6610745	0.07344142	-0.050418181	0.9123967	0.11613001	0.13535057	1.6897718	0.095242803	0.042773183	0.9485024	0.14609012	0.04591168	1.6029614	0.026280603	0.0076498277	0.8443884	0.12720007	0.0813164	1.5661643	0.47935618	-0.094933978	1.2178437	0.46705841	0.1978558	1.5721707	0.47633593	0.031077342	1.2091701	0.45647529	0.071379791	1.3692339	0.84364161	-0.13602384	1.2904581	0.86027971	0.23030856	1.4323265	0.93560315	-0.068155578	1.4116835	0.94148847	0.1761995	1.2527699	0.98495755	0.030917354	1.3740006	1.3878495	-0.13597462	1.3568315	1.4085068	0.1962452	1.2946153	1.4439298	0.026817938	1.2133623	1.0607464	-0.19619381	1.2031193	1.0818053	0.29368402	1.3171326	0.81872266	-0.22502211	1.3429815	0.84192063	0.30975912
455	1.816	1.8179516	0.063698806	-0.021196411	1.03684	0.042345235	0.098801298	1.6629788	0.073225261	-0.05076427	0.91501152	0.11917807	0.13627755	1.6914783	0.094624629	0.04248215	0.9515473	0.14855469	0.046895424	1.6036997	0.026943462	0.007132006	0.84736724	0.13165761	0.082192221	1.5727943	0.48062734	-0.095399008	1.2249207	0.46673353	0.19815841	1.5778953	0.47747895	0.030400402	1.2156463	0.4560828	0.071337142	1.376178	0.84438267	-0.13672226	1.2988735	0.85942148	0.22995759	1.4384673	0.93599259	-0.068577144	1.418319	0.94107851	0.17563107	1.2590594	0.98515337	0.03060671	1.3797683	1.3878294	-0.13658203	1.3622104	1.4085063	0.1956975	1.3003016	1.4439126	0.026055148	1.2196942	1.0605122	-0.19694286	1.2084895	1.0818305	0.29275458	1.323432	0.81852056	-0.22581199	1.3469865	0.84156217	0.30935312
456	1.82	1.819222	0.060124144	-0.020689522	1.037521	0.042643184	0.099086065	1.6646556	0.072996982	-0.051079264	0.91802499	0.12241255	0.13711136	1.6929901	0.094026662	0.042242119	0.95478088	0.15112518	0.047886889	1.6042847	0.02767993	0.0064894906	0.85057698	0.13630399	0.083051387	1.579771	0.48189587	-0.095943802	1.2320321	0.46643284	0.1984038	1.583808	0.47887738	0.029591857	1.2223944	0.45566492	0.071391204	1.3829656	0.84529767	-0.13748038	1.3078782	0.85858562	0.22977444	1.4445477	0.93649229	-0.069047528	1.4249083	0.94076634	0.17501489	1.2653651	0.98538905	0.030405644	1.3855323	1.3878851	-0.13716818	1.367616	1.4085901	0.19513777	1.3059602	1.4438775	0.02528667	1.2261124	1.0603565	-0.19760029	1.2138541	1.0819302	0.29183017	1.3297715	0.81838378	-0.22658919	1.3509971	0.84127653	0.30893698
457	1.824	1.8203915	0.05667414	-0.020079992	1.0382411	0.042993431	0.09923535	1.6661714	0.072718638	-0.051365913	0.92145176	0.12577881	0.13784525	1.6942648	0.093413128	0.042080801	0.95821816	0.1537995	0.048886572	1.6047771	0.028459213	0.0056796547	0.85400215	0.14116265	0.083921654	1.5869485	0.48302879	-0.096575108	1.2391748	0.46613674	0.19860818	1.5898563	0.48036013	0.028695312	1.229438	0.45514469	0.071557122	1.3895794	0.84633848	-0.13829527	1.3166349	0.8578558	0.22958144	1.4505948	0.93709739	-0.06958166	1.4314653	0.94053205	0.17435684	1.2716736	0.9856247	0.03032325	1.3912832	1.3880112	-0.1377247	1.37306	1.4087465	0.19456419	1.3115687	1.443849	0.024566764	1.2325823	1.0602634	-0.19823976	1.2192004	1.0821185	0.29089162	1.3361625	0.81830753	-0.22736398	1.3552003	0.84106763	0.30850506
458	1.828	1.8215122	0.053511477	-0.019363474	1.0389862	0.043430169	0.099120008	1.6676095	0.072378751	-0.051615803	0.92513343	0.12923105	0.13853418	1.6953401	0.092768708	0.042011761	0.96187864	0.15658049	0.049896989	1.6052598	0.029213228	0.0047856431	0.85764126	0.14624836	0.084806451	1.5940067	0.48392945	-0.097258718	1.2464362	0.46582234	0.19882819	1.5959517	0.48178593	0.027753398	1.2367499	0.45450222	0.071806161	1.3959745	0.84744979	-0.13914047	1.3245792	0.85727208	0.22925365	1.4566154	0.93779627	-0.070193841	1.4380005	0.94035564	0.17365702	1.2779538	0.98582155	0.030314451	1.3970209	1.3881957	-0.13825181	1.3785409	1.4089509	0.19398171	1.317136	1.4438537	0.02391765	1.2390874	1.0602296	-0.19887833	1.2245364	1.082397	0.28993442	1.3426175	0.81828719	-0.22814426	1.3594869	0.8409529	0.30806501
459	1.832	1.8226314	0.050756509	-0.018590806	1.039782	0.043988514	0.09875443	1.6690434	0.071990294	-0.051785356	0.92889948	0.13281485	0.13924011	1.696357	0.092098316	0.042051525	0.96577038	0.1594836	0.050907726	1.6058039	0.029872407	0.0039990204	0.86151716	0.15155452	0.08568365	1.6007422	0.48455368	-0.097983843	1.2539086	0.46547536	0.19912457	1.6020116	0.48303635	0.02680932	1.2443621	0.45374175	0.072158734	1.4021238	0.84858405	-0.13999973	1.3318435	0.85680961	0.2288047	1.4625987	0.93857238	-0.07089136	1.4445202	0.94021942	0.17291051	1.2841844	0.98595817	0.030321327	1.4027525	1.3884251	-0.13875626	1.3840513	1.4091832	0.19339748	1.3226784	1.4438851	0.023324934	1.2456228	1.0602515	-0.19949799	1.2298801	1.082756	0.28896623	1.3491386	0.81832102	-0.22892996	1.3636829	0.84094684	0.30762878
